<svg id="visual" viewBox="0 0 960 540" width="960" height="540" xmlns="http://www.w3.org/2000/svg" xmlns:xlink="http://www.w3.org/1999/xlink" version="1.1"><path d="M710 540L673 540L673 463L637 463L637 386L636 386L636 309L589 309L589 231L587 231L587 154L659 154L659 77L648 77L648 0L960 0L960 77L960 77L960 154L960 154L960 231L960 231L960 309L960 309L960 386L960 386L960 463L960 463L960 540L960 540Z" fill="#34d399"></path><path d="M688 540L708 540L708 463L791 463L791 386L745 386L745 309L801 309L801 231L696 231L696 154L714 154L714 77L768 77L768 0L960 0L960 77L960 77L960 154L960 154L960 231L960 231L960 309L960 309L960 386L960 386L960 463L960 463L960 540L960 540Z" fill="#2cb583"></path><path d="M858 540L798 540L798 463L802 463L802 386L810 386L810 309L859 309L859 231L795 231L795 154L818 154L818 77L839 77L839 0L960 0L960 77L960 77L960 154L960 154L960 231L960 231L960 309L960 309L960 386L960 386L960 463L960 463L960 540L960 540Z" fill="#25976d"></path></svg>