<svg id="visual" viewBox="0 0 900 600" width="900" height="600" xmlns="http://www.w3.org/2000/svg" xmlns:xlink="http://www.w3.org/1999/xlink" version="1.1"><path d="M719 600L755 600L755 545L773 545L773 491L809 491L809 436L764 436L764 382L674 382L674 327L809 327L809 273L701 273L701 218L791 218L791 164L683 164L683 109L773 109L773 55L719 55L719 0L900 0L900 55L900 55L900 109L900 109L900 164L900 164L900 218L900 218L900 273L900 273L900 327L900 327L900 382L900 382L900 436L900 436L900 491L900 491L900 545L900 545L900 600L900 600Z" fill="#34d399"></path><path d="M548 600L629 600L629 545L620 545L620 491L746 491L746 436L602 436L602 382L557 382L557 327L629 327L629 273L512 273L512 218L674 218L674 164L512 164L512 109L593 109L593 55L602 55L602 0L720 0L720 55L774 55L774 109L684 109L684 164L792 164L792 218L702 218L702 273L810 273L810 327L675 327L675 382L765 382L765 436L810 436L810 491L774 491L774 545L756 545L756 600L720 600Z" fill="#70d6a9"></path><path d="M260 600L413 600L413 545L323 545L323 491L359 491L359 436L305 436L305 382L233 382L233 327L404 327L404 273L233 273L233 218L512 218L512 164L269 164L269 109L449 109L449 55L422 55L422 0L603 0L603 55L594 55L594 109L513 109L513 164L675 164L675 218L513 218L513 273L630 273L630 327L558 327L558 382L603 382L603 436L747 436L747 491L621 491L621 545L630 545L630 600L549 600Z" fill="#98d9ba"></path><path d="M80 600L98 600L98 545L98 545L98 491L125 491L125 436L143 436L143 382L125 382L125 327L71 327L71 273L80 273L80 218L125 218L125 164L98 164L98 109L107 109L107 55L53 55L53 0L423 0L423 55L450 55L450 109L270 109L270 164L513 164L513 218L234 218L234 273L405 273L405 327L234 327L234 382L306 382L306 436L360 436L360 491L324 491L324 545L414 545L414 600L261 600Z" fill="#bbdaca"></path><path d="M0 600L0 600L0 545L0 545L0 491L0 491L0 436L0 436L0 382L0 382L0 327L0 327L0 273L0 273L0 218L0 218L0 164L0 164L0 109L0 109L0 55L0 55L0 0L54 0L54 55L108 55L108 109L99 109L99 164L126 164L126 218L81 218L81 273L72 273L72 327L126 327L126 382L144 382L144 436L126 436L126 491L99 491L99 545L99 545L99 600L81 600Z" fill="#dbdbdb"></path></svg>